<mxfile host="app.diagrams.net" modified="2022-04-29T10:07:42.887Z" agent="5.0 (Macintosh; Intel Mac OS X 10_15_7) AppleWebKit/537.36 (KHTML, like Gecko) Chrome/100.0.4896.127 Safari/537.36" etag="m_IjRe2YULahNC_5Yozf" version="17.4.6" type="github">
  <diagram id="OVd-dV1wvnnMvZWVRHqn" name="Page-1">
    <mxGraphModel dx="1234" dy="700" grid="1" gridSize="10" guides="1" tooltips="1" connect="1" arrows="1" fold="1" page="1" pageScale="1" pageWidth="827" pageHeight="1169" math="0" shadow="0">
      <root>
        <mxCell id="0" />
        <mxCell id="1" parent="0" />
        <mxCell id="-SUeb-Ovs04sUw0aCjym-1" value="" style="endArrow=classic;html=1;rounded=0;" edge="1" parent="1">
          <mxGeometry width="50" height="50" relative="1" as="geometry">
            <mxPoint x="70" y="240" as="sourcePoint" />
            <mxPoint x="770" y="240" as="targetPoint" />
          </mxGeometry>
        </mxCell>
        <mxCell id="-SUeb-Ovs04sUw0aCjym-3" value="1. Request new build" style="rounded=0;whiteSpace=wrap;html=1;" vertex="1" parent="1">
          <mxGeometry x="70" y="270" width="120" height="60" as="geometry" />
        </mxCell>
        <mxCell id="-SUeb-Ovs04sUw0aCjym-4" value="" style="shape=cylinder3;whiteSpace=wrap;html=1;boundedLbl=1;backgroundOutline=1;size=15;" vertex="1" parent="1">
          <mxGeometry x="190" y="400" width="60" height="80" as="geometry" />
        </mxCell>
        <mxCell id="-SUeb-Ovs04sUw0aCjym-5" value="new task" style="endArrow=classic;html=1;rounded=0;exitX=0.5;exitY=1;exitDx=0;exitDy=0;entryX=0.5;entryY=0;entryDx=0;entryDy=0;entryPerimeter=0;" edge="1" parent="1" source="-SUeb-Ovs04sUw0aCjym-3" target="-SUeb-Ovs04sUw0aCjym-4">
          <mxGeometry width="50" height="50" relative="1" as="geometry">
            <mxPoint x="390" y="380" as="sourcePoint" />
            <mxPoint x="440" y="330" as="targetPoint" />
          </mxGeometry>
        </mxCell>
        <mxCell id="-SUeb-Ovs04sUw0aCjym-6" value="Autoscaler" style="rounded=0;whiteSpace=wrap;html=1;" vertex="1" parent="1">
          <mxGeometry x="70" y="130" width="690" height="60" as="geometry" />
        </mxCell>
        <mxCell id="-SUeb-Ovs04sUw0aCjym-7" value="desired: 0" style="endArrow=classic;html=1;rounded=0;exitX=0.135;exitY=1.033;exitDx=0;exitDy=0;exitPerimeter=0;" edge="1" parent="1" source="-SUeb-Ovs04sUw0aCjym-6">
          <mxGeometry width="50" height="50" relative="1" as="geometry">
            <mxPoint x="390" y="380" as="sourcePoint" />
            <mxPoint x="163" y="240" as="targetPoint" />
          </mxGeometry>
        </mxCell>
        <mxCell id="-SUeb-Ovs04sUw0aCjym-8" value="" style="endArrow=classic;html=1;rounded=0;exitX=0.5;exitY=0;exitDx=0;exitDy=0;" edge="1" parent="1" source="-SUeb-Ovs04sUw0aCjym-3">
          <mxGeometry width="50" height="50" relative="1" as="geometry">
            <mxPoint x="390" y="380" as="sourcePoint" />
            <mxPoint x="130" y="240" as="targetPoint" />
          </mxGeometry>
        </mxCell>
        <mxCell id="-SUeb-Ovs04sUw0aCjym-9" value="desired: 1" style="endArrow=classic;html=1;rounded=0;exitX=0.343;exitY=1.067;exitDx=0;exitDy=0;exitPerimeter=0;" edge="1" parent="1" source="-SUeb-Ovs04sUw0aCjym-6">
          <mxGeometry width="50" height="50" relative="1" as="geometry">
            <mxPoint x="390" y="380" as="sourcePoint" />
            <mxPoint x="307" y="240" as="targetPoint" />
          </mxGeometry>
        </mxCell>
        <mxCell id="-SUeb-Ovs04sUw0aCjym-10" value="desired: 1" style="endArrow=classic;html=1;rounded=0;exitX=0.52;exitY=1.033;exitDx=0;exitDy=0;exitPerimeter=0;" edge="1" parent="1" source="-SUeb-Ovs04sUw0aCjym-6">
          <mxGeometry width="50" height="50" relative="1" as="geometry">
            <mxPoint x="390" y="380" as="sourcePoint" />
            <mxPoint x="429" y="240" as="targetPoint" />
          </mxGeometry>
        </mxCell>
        <mxCell id="-SUeb-Ovs04sUw0aCjym-11" value="" style="endArrow=classic;html=1;rounded=0;" edge="1" parent="1">
          <mxGeometry width="50" height="50" relative="1" as="geometry">
            <mxPoint x="220" y="400" as="sourcePoint" />
            <mxPoint x="220" y="240" as="targetPoint" />
          </mxGeometry>
        </mxCell>
        <mxCell id="-SUeb-Ovs04sUw0aCjym-12" value="Reconciler" style="rounded=0;whiteSpace=wrap;html=1;" vertex="1" parent="1">
          <mxGeometry x="260" y="330" width="520" height="60" as="geometry" />
        </mxCell>
        <mxCell id="-SUeb-Ovs04sUw0aCjym-13" value="" style="endArrow=classic;html=1;rounded=0;exitX=0.037;exitY=0;exitDx=0;exitDy=0;exitPerimeter=0;" edge="1" parent="1" source="-SUeb-Ovs04sUw0aCjym-12">
          <mxGeometry width="50" height="50" relative="1" as="geometry">
            <mxPoint x="390" y="380" as="sourcePoint" />
            <mxPoint x="279" y="240" as="targetPoint" />
          </mxGeometry>
        </mxCell>
        <mxCell id="-SUeb-Ovs04sUw0aCjym-14" value="preboot 1" style="endArrow=classic;html=1;rounded=0;exitX=0.175;exitY=-0.017;exitDx=0;exitDy=0;exitPerimeter=0;" edge="1" parent="1" source="-SUeb-Ovs04sUw0aCjym-12">
          <mxGeometry width="50" height="50" relative="1" as="geometry">
            <mxPoint x="390" y="380" as="sourcePoint" />
            <mxPoint x="350" y="240" as="targetPoint" />
          </mxGeometry>
        </mxCell>
        <mxCell id="-SUeb-Ovs04sUw0aCjym-15" value="" style="endArrow=classic;html=1;rounded=0;exitX=0.25;exitY=0;exitDx=0;exitDy=0;" edge="1" parent="1" source="-SUeb-Ovs04sUw0aCjym-12">
          <mxGeometry width="50" height="50" relative="1" as="geometry">
            <mxPoint x="390" y="380" as="sourcePoint" />
            <mxPoint x="390" y="240" as="targetPoint" />
          </mxGeometry>
        </mxCell>
        <mxCell id="-SUeb-Ovs04sUw0aCjym-16" value="Build process" style="rounded=0;whiteSpace=wrap;html=1;" vertex="1" parent="1">
          <mxGeometry x="500" y="420" width="120" height="60" as="geometry" />
        </mxCell>
        <mxCell id="-SUeb-Ovs04sUw0aCjym-17" value="preboot takes&lt;br&gt;" style="endArrow=classic;html=1;rounded=0;exitX=0;exitY=0;exitDx=0;exitDy=0;" edge="1" parent="1" source="-SUeb-Ovs04sUw0aCjym-16">
          <mxGeometry x="-0.7778" width="50" height="50" relative="1" as="geometry">
            <mxPoint x="500" y="410" as="sourcePoint" />
            <mxPoint x="500" y="240" as="targetPoint" />
            <mxPoint as="offset" />
          </mxGeometry>
        </mxCell>
        <mxCell id="-SUeb-Ovs04sUw0aCjym-18" value="" style="endArrow=classic;html=1;rounded=0;exitX=1;exitY=0;exitDx=0;exitDy=0;" edge="1" parent="1" source="-SUeb-Ovs04sUw0aCjym-16">
          <mxGeometry width="50" height="50" relative="1" as="geometry">
            <mxPoint x="390" y="380" as="sourcePoint" />
            <mxPoint x="620" y="240" as="targetPoint" />
          </mxGeometry>
        </mxCell>
        <mxCell id="-SUeb-Ovs04sUw0aCjym-23" value="build done" style="edgeLabel;html=1;align=center;verticalAlign=middle;resizable=0;points=[];" vertex="1" connectable="0" parent="-SUeb-Ovs04sUw0aCjym-18">
          <mxGeometry x="-0.8111" y="1" relative="1" as="geometry">
            <mxPoint as="offset" />
          </mxGeometry>
        </mxCell>
        <mxCell id="-SUeb-Ovs04sUw0aCjym-19" value="preboot 1" style="endArrow=classic;html=1;rounded=0;exitX=0.5;exitY=0;exitDx=0;exitDy=0;" edge="1" parent="1" source="-SUeb-Ovs04sUw0aCjym-12">
          <mxGeometry width="50" height="50" relative="1" as="geometry">
            <mxPoint x="390" y="380" as="sourcePoint" />
            <mxPoint x="520" y="240" as="targetPoint" />
          </mxGeometry>
        </mxCell>
        <mxCell id="-SUeb-Ovs04sUw0aCjym-20" value="desired: 0&lt;br&gt;" style="endArrow=classic;html=1;rounded=0;exitX=0.688;exitY=1.042;exitDx=0;exitDy=0;exitPerimeter=0;" edge="1" parent="1" source="-SUeb-Ovs04sUw0aCjym-6">
          <mxGeometry width="50" height="50" relative="1" as="geometry">
            <mxPoint x="438.79999999999995" y="201.98000000000002" as="sourcePoint" />
            <mxPoint x="545" y="240" as="targetPoint" />
          </mxGeometry>
        </mxCell>
        <mxCell id="-SUeb-Ovs04sUw0aCjym-21" value="stop 1" style="endArrow=classic;html=1;rounded=0;exitX=0.5;exitY=0;exitDx=0;exitDy=0;" edge="1" parent="1">
          <mxGeometry width="50" height="50" relative="1" as="geometry">
            <mxPoint x="570" y="330" as="sourcePoint" />
            <mxPoint x="570" y="240" as="targetPoint" />
          </mxGeometry>
        </mxCell>
        <mxCell id="-SUeb-Ovs04sUw0aCjym-22" value="stop 1" style="endArrow=classic;html=1;rounded=0;exitX=0.5;exitY=0;exitDx=0;exitDy=0;" edge="1" parent="1">
          <mxGeometry width="50" height="50" relative="1" as="geometry">
            <mxPoint x="640" y="330" as="sourcePoint" />
            <mxPoint x="640" y="240" as="targetPoint" />
          </mxGeometry>
        </mxCell>
      </root>
    </mxGraphModel>
  </diagram>
</mxfile>
